<svg xmlns="http://www.w3.org/2000/svg" xmlns:xlink="http://www.w3.org/1999/xlink" width="500" zoomAndPan="magnify" viewBox="0 0 375 374.999991" height="500" preserveAspectRatio="xMidYMid meet" version="1.0"><defs><g/><clipPath id="6b34ad260b"><path d="M 183 149 L 296 149 L 296 233 L 183 233 Z M 183 149 " clip-rule="nonzero"/></clipPath><clipPath id="11fa4f5b06"><path d="M 178.4375 161.78125 L 286.3125 135.632812 L 305.214844 213.625 L 197.339844 239.773438 Z M 178.4375 161.78125 " clip-rule="nonzero"/></clipPath><clipPath id="ecb6b40025"><path d="M 178.4375 161.78125 L 286.3125 135.632812 L 305.214844 213.625 L 197.339844 239.773438 Z M 178.4375 161.78125 " clip-rule="nonzero"/></clipPath><clipPath id="c8a272dfd5"><path d="M 99.355469 182.066406 L 127.105469 182.066406 L 127.105469 209.816406 L 99.355469 209.816406 Z M 99.355469 182.066406 " clip-rule="nonzero"/></clipPath></defs><rect x="-37.5" width="450" fill="#ffffff" y="-37.499999" height="449.999989" fill-opacity="1"/><rect x="-37.5" width="450" fill="#000000" y="-37.499999" height="449.999989" fill-opacity="1"/><g clip-path="url(#6b34ad260b)"><g clip-path="url(#11fa4f5b06)"><g clip-path="url(#ecb6b40025)"><path fill="#9cff1e" d="M 293.121094 172.257812 C 293.523438 173.789062 294.375 174.707031 295.070312 175.21875 C 294.019531 176.644531 292.960938 178.058594 291.898438 179.46875 C 290.742188 178.601562 288.859375 176.75 288.039062 173.636719 C 286.085938 176.25 284.113281 178.84375 282.113281 181.417969 C 279.832031 184.359375 277.519531 187.277344 275.167969 190.167969 C 272.820312 193.058594 270.433594 195.921875 268.003906 198.753906 C 265.574219 201.585938 263.097656 204.382812 260.5625 207.132812 C 258.027344 209.878906 255.429688 212.585938 252.742188 215.214844 C 250.054688 217.84375 247.273438 220.398438 244.332031 222.816406 C 241.378906 225.226562 238.289062 227.523438 234.769531 229.414062 C 233.003906 230.347656 231.121094 231.179688 228.992188 231.699219 C 227.925781 231.945312 226.792969 232.113281 225.59375 232.09375 C 224.996094 232.089844 224.378906 232.023438 223.761719 231.914062 C 223.140625 231.792969 222.523438 231.609375 221.921875 231.367188 C 221.320312 231.113281 220.746094 230.800781 220.210938 230.4375 C 219.726562 230.066406 219.238281 229.722656 218.808594 229.273438 C 218.351562 228.859375 217.972656 228.367188 217.589844 227.878906 C 217.421875 227.625 217.253906 227.367188 217.089844 227.105469 C 217.003906 226.976562 216.929688 226.84375 216.863281 226.707031 L 216.660156 226.300781 C 216.132812 225.210938 215.777344 224.066406 215.601562 222.957031 L 215.527344 222.539062 L 215.480469 222.125 C 215.453125 221.851562 215.421875 221.574219 215.402344 221.300781 C 215.386719 220.761719 215.347656 220.214844 215.371094 219.691406 C 215.417969 217.574219 215.746094 215.570312 216.195312 213.648438 C 216.648438 211.726562 217.214844 209.871094 217.84375 208.058594 C 219.101562 204.433594 220.585938 200.964844 222.132812 197.550781 C 223.679688 194.136719 225.292969 190.785156 226.890625 187.449219 C 228.488281 184.109375 230.074219 180.789062 231.550781 177.449219 C 233.015625 174.113281 234.394531 170.753906 235.390625 167.394531 C 235.882812 165.714844 236.273438 164.039062 236.457031 162.425781 L 236.507812 161.828125 L 236.53125 161.53125 L 236.539062 161.242188 C 236.542969 161.046875 236.550781 160.851562 236.550781 160.664062 L 236.527344 160.109375 C 236.472656 159.382812 236.351562 158.710938 236.144531 158.136719 C 235.925781 157.574219 235.636719 157.113281 235.257812 156.722656 C 235.160156 156.628906 235.078125 156.519531 234.953125 156.441406 L 234.789062 156.308594 C 234.730469 156.265625 234.683594 156.21875 234.609375 156.175781 C 234.46875 156.089844 234.332031 156.003906 234.195312 155.914062 L 233.757812 155.695312 C 233.164062 155.421875 232.527344 155.234375 231.839844 155.128906 C 231.15625 155.019531 230.414062 155.019531 229.660156 155.074219 C 228.144531 155.1875 226.546875 155.617188 224.96875 156.1875 C 223.390625 156.777344 221.820312 157.519531 220.28125 158.355469 C 217.199219 160.042969 214.234375 162.085938 211.367188 164.269531 C 208.496094 166.464844 205.722656 168.816406 203.019531 171.265625 C 200.320312 173.714844 197.691406 176.253906 195.125 178.863281 C 193.84375 180.167969 192.578125 181.492188 191.332031 182.828125 C 190.707031 183.496094 190.089844 184.167969 189.476562 184.84375 C 188.867188 185.515625 188.25 186.210938 187.675781 186.871094 L 183.6875 183.441406 C 184.328125 182.699219 184.941406 182.011719 185.578125 181.3125 C 186.207031 180.617188 186.84375 179.925781 187.484375 179.238281 C 188.761719 177.867188 190.058594 176.511719 191.371094 175.175781 C 194 172.5 196.699219 169.894531 199.488281 167.363281 C 202.277344 164.839844 205.15625 162.394531 208.171875 160.089844 C 211.191406 157.789062 214.34375 155.609375 217.761719 153.734375 C 219.476562 152.804688 221.261719 151.953125 223.152344 151.25 C 225.054688 150.5625 227.0625 150 229.246094 149.828125 C 230.335938 149.75 231.460938 149.742188 232.609375 149.921875 C 233.753906 150.09375 234.90625 150.425781 235.996094 150.929688 C 236.261719 151.066406 236.53125 151.199219 236.796875 151.339844 L 237.558594 151.816406 C 237.683594 151.890625 237.8125 151.996094 237.9375 152.09375 L 238.316406 152.394531 C 238.574219 152.582031 238.800781 152.820312 239.03125 153.054688 C 239.945312 153.984375 240.640625 155.136719 241.078125 156.304688 C 241.503906 157.476562 241.695312 158.644531 241.777344 159.765625 L 241.8125 160.597656 C 241.816406 160.871094 241.804688 161.136719 241.800781 161.410156 L 241.789062 161.8125 L 241.757812 162.207031 L 241.691406 162.996094 C 241.449219 165.0625 240.988281 167.003906 240.4375 168.878906 C 239.328125 172.625 237.875 176.128906 236.363281 179.574219 C 234.84375 183.011719 233.238281 186.375 231.636719 189.71875 C 230.035156 193.0625 228.4375 196.386719 226.925781 199.722656 C 225.417969 203.054688 223.988281 206.40625 222.816406 209.78125 C 222.230469 211.46875 221.714844 213.160156 221.320312 214.84375 C 220.921875 216.523438 220.664062 218.203125 220.632812 219.789062 C 220.609375 220.191406 220.648438 220.566406 220.652344 220.957031 C 220.667969 221.144531 220.691406 221.328125 220.710938 221.511719 L 220.738281 221.792969 L 220.789062 222.054688 C 220.894531 222.777344 221.113281 223.417969 221.390625 223.992188 L 221.496094 224.207031 C 221.527344 224.28125 221.5625 224.351562 221.609375 224.410156 C 221.695312 224.539062 221.78125 224.671875 221.859375 224.804688 C 222.0625 225.039062 222.234375 225.292969 222.472656 225.496094 C 222.679688 225.726562 222.960938 225.902344 223.203125 226.105469 C 223.433594 226.261719 223.675781 226.390625 223.929688 226.503906 C 224.1875 226.605469 224.457031 226.683594 224.746094 226.746094 C 225.042969 226.792969 225.347656 226.832031 225.675781 226.832031 C 226.328125 226.84375 227.042969 226.75 227.777344 226.578125 C 229.257812 226.21875 230.796875 225.5625 232.300781 224.765625 C 235.316406 223.152344 238.214844 221.023438 240.992188 218.75 C 243.777344 216.464844 246.457031 214 249.0625 211.449219 C 251.671875 208.898438 254.207031 206.257812 256.695312 203.5625 C 259.179688 200.867188 261.617188 198.117188 264.011719 195.324219 C 266.40625 192.535156 268.761719 189.707031 271.085938 186.847656 C 273.40625 183.992188 275.695312 181.101562 277.957031 178.191406 C 279.933594 175.640625 281.890625 173.074219 283.820312 170.488281 C 280.613281 170.5625 278.328125 169.238281 277.175781 168.367188 C 278.203125 167.003906 279.222656 165.636719 280.234375 164.265625 C 280.929688 164.78125 282.050781 165.332031 283.617188 165.28125 C 285.183594 165.230469 287.21875 164.566406 289.675781 162.652344 L 293.804688 165.5625 C 292.75 168.589844 292.714844 170.71875 293.121094 172.257812 Z M 293.121094 172.257812 " fill-opacity="1" fill-rule="nonzero"/></g></g></g><g clip-path="url(#c8a272dfd5)"><path fill="#9cff1e" d="M 127.199219 192.199219 L 127.199219 199.839844 C 117.941406 202.546875 116.558594 207.351562 116.558594 209.972656 L 108.59375 209.972656 C 108.59375 207.78125 109.101562 203.820312 112.140625 200 L 99.367188 200 L 99.367188 192.039062 L 112.140625 192.039062 C 109.101562 188.21875 108.59375 184.257812 108.59375 182.066406 L 116.558594 182.066406 C 116.558594 184.6875 117.941406 189.492188 127.199219 192.199219 Z M 127.199219 192.199219 " fill-opacity="1" fill-rule="nonzero"/></g><g fill="#ffffff" fill-opacity="1"><g transform="translate(127.216739, 206.624986)"><g><path d="M 5.359375 -28.703125 C 4.554688 -28.703125 3.890625 -28.96875 3.359375 -29.5 C 2.828125 -30.03125 2.5625 -30.695312 2.5625 -31.5 C 2.5625 -32.269531 2.828125 -32.921875 3.359375 -33.453125 C 3.890625 -33.984375 4.554688 -34.25 5.359375 -34.25 C 6.128906 -34.25 6.78125 -33.984375 7.3125 -33.453125 C 7.84375 -32.921875 8.109375 -32.269531 8.109375 -31.5 C 8.109375 -30.695312 7.84375 -30.03125 7.3125 -29.5 C 6.78125 -28.96875 6.128906 -28.703125 5.359375 -28.703125 Z M 3.140625 0 L 3.4375 -3.328125 L 3.4375 -21.890625 C 3.113281 -22.109375 2.664062 -22.296875 2.09375 -22.453125 C 1.53125 -22.617188 0.992188 -22.71875 0.484375 -22.75 L 0.484375 -22.953125 L 8.109375 -23.671875 L 7.875 -20.09375 L 7.875 -4.5 C 7.875 -3.207031 8.007812 -2.253906 8.28125 -1.640625 C 8.5625 -1.023438 9.054688 -0.476562 9.765625 0 Z M 3.140625 0 "/></g></g></g><g fill="#ffffff" fill-opacity="1"><g transform="translate(137.457202, 206.624986)"><g><path d="M 20.671875 0 L 20.96875 -3.328125 L 20.96875 -14.828125 C 20.96875 -16.660156 20.707031 -18.066406 20.1875 -19.046875 C 19.675781 -20.035156 19.015625 -20.710938 18.203125 -21.078125 C 17.398438 -21.453125 16.582031 -21.640625 15.75 -21.640625 C 14.207031 -21.640625 12.8125 -21.257812 11.5625 -20.5 C 10.320312 -19.75 9.09375 -18.953125 7.875 -18.109375 L 7.875 -4.5 C 7.875 -3.207031 8.007812 -2.253906 8.28125 -1.640625 C 8.5625 -1.023438 9.054688 -0.476562 9.765625 0 L 3.140625 0 L 3.4375 -3.328125 L 3.4375 -21.890625 C 3.113281 -22.109375 2.664062 -22.296875 2.09375 -22.453125 C 1.53125 -22.617188 0.992188 -22.71875 0.484375 -22.75 L 0.484375 -22.953125 L 8.109375 -23.671875 L 7.875 -20.09375 L 7.875 -19.1875 C 8.738281 -19.757812 9.71875 -20.398438 10.8125 -21.109375 C 11.914062 -21.816406 13.117188 -22.425781 14.421875 -22.9375 C 15.722656 -23.457031 17.082031 -23.71875 18.5 -23.71875 C 19.5625 -23.71875 20.625 -23.492188 21.6875 -23.046875 C 22.75 -22.597656 23.632812 -21.742188 24.34375 -20.484375 C 25.050781 -19.222656 25.40625 -17.367188 25.40625 -14.921875 L 25.40625 -4.5 C 25.40625 -3.207031 25.539062 -2.253906 25.8125 -1.640625 C 26.09375 -1.023438 26.585938 -0.476562 27.296875 0 Z M 20.671875 0 "/></g></g></g><g fill="#ffffff" fill-opacity="1"><g transform="translate(165.232245, 206.624986)"><g><path d="M 7.25 0.765625 L 3.671875 -0.4375 L 3.8125 -3.328125 L 3.8125 -26.328125 C 3.8125 -27.359375 3.53125 -27.878906 2.96875 -27.890625 C 2.40625 -27.910156 1.335938 -27.695312 -0.234375 -27.25 L -0.234375 -27.53125 L 8.640625 -31.640625 L 8.265625 -29.65625 L 8.265625 -23.4375 L 14.109375 -23.4375 L 13.859375 -22.265625 L 8.265625 -22.265625 L 8.265625 -0.875 L 14.109375 -1.0625 L 14.109375 -0.875 L 8.265625 0.765625 Z M 7.25 0.765625 "/></g></g></g><g fill="#ffffff" fill-opacity="1"><g transform="translate(179.578598, 206.624986)"><g><path d="M 24.25 -4.828125 L 24.5 -4.640625 C 23.789062 -3.285156 22.507812 -2.113281 20.65625 -1.125 C 18.800781 -0.144531 16.632812 0.34375 14.15625 0.34375 C 11.9375 0.34375 9.898438 -0.109375 8.046875 -1.015625 C 6.191406 -1.921875 4.707031 -3.234375 3.59375 -4.953125 C 2.488281 -6.671875 1.9375 -8.738281 1.9375 -11.15625 C 1.9375 -13.769531 2.5625 -16.007812 3.8125 -17.875 C 5.070312 -19.738281 6.722656 -21.175781 8.765625 -22.1875 C 10.816406 -23.207031 13 -23.71875 15.3125 -23.71875 C 17.3125 -23.71875 18.96875 -23.367188 20.28125 -22.671875 C 21.601562 -21.984375 22.578125 -21.128906 23.203125 -20.109375 C 23.835938 -19.097656 24.144531 -18.078125 24.125 -17.046875 C 24.113281 -16.023438 23.800781 -15.164062 23.1875 -14.46875 C 22.570312 -13.78125 21.65625 -13.4375 20.4375 -13.4375 L 6.625 -13.4375 C 6.65625 -11.238281 7.0625 -9.253906 7.84375 -7.484375 C 8.632812 -5.710938 9.742188 -4.316406 11.171875 -3.296875 C 12.609375 -2.285156 14.296875 -1.78125 16.234375 -1.78125 C 17.097656 -1.78125 18.050781 -1.894531 19.09375 -2.125 C 20.144531 -2.351562 21.144531 -2.691406 22.09375 -3.140625 C 23.050781 -3.585938 23.769531 -4.148438 24.25 -4.828125 Z M 13.578125 -22.859375 C 11.609375 -22.859375 9.988281 -22.097656 8.71875 -20.578125 C 7.445312 -19.066406 6.75 -16.941406 6.625 -14.203125 L 18.5 -14.34375 C 19.082031 -14.34375 19.484375 -14.632812 19.703125 -15.21875 C 19.929688 -15.800781 19.972656 -16.507812 19.828125 -17.34375 C 19.679688 -18.175781 19.359375 -19.019531 18.859375 -19.875 C 18.359375 -20.726562 17.664062 -21.4375 16.78125 -22 C 15.894531 -22.570312 14.828125 -22.859375 13.578125 -22.859375 Z M 13.578125 -22.859375 "/></g></g></g><g fill="#ffffff" fill-opacity="1"><g transform="translate(204.551968, 206.624986)"><g><path d="M 7.875 -4.6875 C 7.875 -3.394531 8.035156 -2.382812 8.359375 -1.65625 C 8.679688 -0.9375 9.4375 -0.445312 10.625 -0.1875 L 10.625 0 L 3 0 L 3.4375 -3 L 3.4375 -31.84375 C 3.4375 -32.800781 3.160156 -33.28125 2.609375 -33.28125 C 2.054688 -33.28125 1.023438 -33.054688 -0.484375 -32.609375 L -0.484375 -32.90625 L 8.109375 -36.953125 L 7.875 -35.078125 Z M 7.875 -4.6875 "/></g></g></g><g fill="#ffffff" fill-opacity="1"><g transform="translate(214.937349, 206.624986)"><g><path d="M 7.875 -4.6875 C 7.875 -3.394531 8.035156 -2.382812 8.359375 -1.65625 C 8.679688 -0.9375 9.4375 -0.445312 10.625 -0.1875 L 10.625 0 L 3 0 L 3.4375 -3 L 3.4375 -31.84375 C 3.4375 -32.800781 3.160156 -33.28125 2.609375 -33.28125 C 2.054688 -33.28125 1.023438 -33.054688 -0.484375 -32.609375 L -0.484375 -32.90625 L 8.109375 -36.953125 L 7.875 -35.078125 Z M 7.875 -4.6875 "/></g></g></g><g fill="#ffffff" fill-opacity="1"><g transform="translate(225.32273, 206.624986)"><g><path d="M 5.359375 -28.703125 C 4.554688 -28.703125 3.890625 -28.96875 3.359375 -29.5 C 2.828125 -30.03125 2.5625 -30.695312 2.5625 -31.5 C 2.5625 -32.269531 2.828125 -32.921875 3.359375 -33.453125 C 3.890625 -33.984375 4.554688 -34.25 5.359375 -34.25 C 6.128906 -34.25 6.78125 -33.984375 7.3125 -33.453125 C 7.84375 -32.921875 8.109375 -32.269531 8.109375 -31.5 C 8.109375 -30.695312 7.84375 -30.03125 7.3125 -29.5 C 6.78125 -28.96875 6.128906 -28.703125 5.359375 -28.703125 Z M 3.140625 0 L 3.4375 -3.328125 L 3.4375 -21.890625 C 3.113281 -22.109375 2.664062 -22.296875 2.09375 -22.453125 C 1.53125 -22.617188 0.992188 -22.71875 0.484375 -22.75 L 0.484375 -22.953125 L 8.109375 -23.671875 L 7.875 -20.09375 L 7.875 -4.5 C 7.875 -3.207031 8.007812 -2.253906 8.28125 -1.640625 C 8.5625 -1.023438 9.054688 -0.476562 9.765625 0 Z M 3.140625 0 "/></g></g></g><g fill="#ffffff" fill-opacity="1"><g transform="translate(235.563188, 206.624986)"><g><path d="M 10.96875 0.34375 C 9.0625 0.34375 7.296875 0.0703125 5.671875 -0.46875 C 4.046875 -1.019531 2.71875 -1.703125 1.6875 -2.515625 L 4.390625 -7 L 4.5 -7 C 4.5 -5.613281 4.921875 -4.421875 5.765625 -3.421875 C 6.617188 -2.429688 7.691406 -1.675781 8.984375 -1.15625 C 10.273438 -0.644531 11.546875 -0.390625 12.796875 -0.390625 C 14.472656 -0.390625 15.632812 -0.796875 16.28125 -1.609375 C 16.925781 -2.429688 17.25 -3.410156 17.25 -4.546875 C 17.25 -6.148438 16.71875 -7.3125 15.65625 -8.03125 C 14.59375 -8.757812 13.109375 -9.269531 11.203125 -9.5625 C 8.722656 -9.945312 6.835938 -10.554688 5.546875 -11.390625 C 4.265625 -12.234375 3.394531 -13.144531 2.9375 -14.125 C 2.488281 -15.113281 2.265625 -16.039062 2.265625 -16.90625 C 2.265625 -18.351562 2.675781 -19.582031 3.5 -20.59375 C 4.320312 -21.613281 5.425781 -22.390625 6.8125 -22.921875 C 8.195312 -23.453125 9.742188 -23.71875 11.453125 -23.71875 C 13.253906 -23.71875 14.9375 -23.453125 16.5 -22.921875 C 18.0625 -22.390625 19.3125 -21.738281 20.25 -20.96875 L 17.203125 -16.421875 L 17.109375 -16.421875 C 17.171875 -17.835938 16.8125 -19.03125 16.03125 -20 C 15.257812 -20.96875 14.285156 -21.707031 13.109375 -22.21875 C 11.941406 -22.738281 10.804688 -23 9.703125 -23 C 8.640625 -23 7.816406 -22.785156 7.234375 -22.359375 C 6.660156 -21.941406 6.253906 -21.425781 6.015625 -20.8125 C 5.773438 -20.207031 5.65625 -19.597656 5.65625 -18.984375 C 5.65625 -17.859375 5.972656 -16.960938 6.609375 -16.296875 C 7.253906 -15.640625 8.066406 -15.148438 9.046875 -14.828125 C 10.035156 -14.503906 11.03125 -14.265625 12.03125 -14.109375 C 14.476562 -13.722656 16.3125 -13.140625 17.53125 -12.359375 C 18.757812 -11.585938 19.582031 -10.734375 20 -9.796875 C 20.414062 -8.867188 20.625 -7.972656 20.625 -7.109375 C 20.625 -4.941406 19.757812 -3.15625 18.03125 -1.75 C 16.3125 -0.351562 13.957031 0.34375 10.96875 0.34375 Z M 10.96875 0.34375 "/></g></g></g><g fill="#9cff1e" fill-opacity="1"><g transform="translate(129.707341, 219.013447)"><g><path d="M 0.6875 -4.0625 L 0.484375 -4.046875 C 0.359375 -4.046875 0.296875 -4.097656 0.296875 -4.203125 C 0.296875 -4.273438 0.328125 -4.335938 0.390625 -4.390625 C 0.671875 -4.566406 0.945312 -4.835938 1.21875 -5.203125 C 1.34375 -5.367188 1.4375 -5.488281 1.5 -5.5625 C 1.570312 -5.644531 1.644531 -5.6875 1.71875 -5.6875 C 1.789062 -5.6875 1.828125 -5.601562 1.828125 -5.4375 C 1.828125 -5.4375 1.8125 -5.226562 1.78125 -4.8125 C 1.78125 -4.707031 1.800781 -4.644531 1.84375 -4.625 C 1.882812 -4.601562 2.015625 -4.59375 2.234375 -4.59375 L 2.609375 -4.59375 C 2.941406 -4.59375 3.144531 -4.609375 3.21875 -4.640625 C 3.34375 -4.710938 3.421875 -4.75 3.453125 -4.75 C 3.523438 -4.75 3.5625 -4.707031 3.5625 -4.625 C 3.5625 -4.5625 3.515625 -4.445312 3.421875 -4.28125 C 3.328125 -4.113281 3.257812 -4.03125 3.21875 -4.03125 C 2.882812 -4.03125 2.648438 -4.035156 2.515625 -4.046875 C 2.390625 -4.054688 2.304688 -4.0625 2.265625 -4.0625 C 2.222656 -4.070312 2.179688 -4.078125 2.140625 -4.078125 C 2.109375 -4.085938 2.085938 -4.09375 2.078125 -4.09375 L 2.0625 -4.09375 C 1.914062 -4.09375 1.820312 -4.070312 1.78125 -4.03125 C 1.75 -3.988281 1.734375 -3.890625 1.734375 -3.734375 L 1.6875 -1.703125 C 1.6875 -1.234375 1.742188 -0.90625 1.859375 -0.71875 C 1.984375 -0.53125 2.238281 -0.4375 2.625 -0.4375 C 2.78125 -0.4375 2.945312 -0.46875 3.125 -0.53125 C 3.3125 -0.601562 3.414062 -0.640625 3.4375 -0.640625 C 3.507812 -0.640625 3.546875 -0.59375 3.546875 -0.5 C 3.546875 -0.40625 3.414062 -0.28125 3.15625 -0.125 C 2.90625 0.03125 2.632812 0.109375 2.34375 0.109375 C 1.363281 0.109375 0.875 -0.316406 0.875 -1.171875 L 0.875 -1.328125 L 0.921875 -3.875 C 0.921875 -3.945312 0.90625 -3.992188 0.875 -4.015625 C 0.84375 -4.046875 0.78125 -4.0625 0.6875 -4.0625 Z M 0.6875 -4.0625 "/></g></g></g><g fill="#9cff1e" fill-opacity="1"><g transform="translate(133.446629, 219.013447)"><g><path d="M 2.734375 0.203125 C 2.085938 0.203125 1.539062 0.0078125 1.09375 -0.375 C 0.644531 -0.769531 0.421875 -1.34375 0.421875 -2.09375 C 0.421875 -2.84375 0.625 -3.46875 1.03125 -3.96875 C 1.445312 -4.46875 1.984375 -4.71875 2.640625 -4.71875 C 2.953125 -4.71875 3.234375 -4.660156 3.484375 -4.546875 C 3.734375 -4.441406 3.925781 -4.3125 4.0625 -4.15625 C 4.207031 -4 4.328125 -3.832031 4.421875 -3.65625 C 4.578125 -3.363281 4.65625 -3.140625 4.65625 -2.984375 C 4.65625 -2.847656 4.503906 -2.78125 4.203125 -2.78125 L 1.40625 -2.78125 C 1.34375 -2.78125 1.304688 -2.773438 1.296875 -2.765625 C 1.285156 -2.753906 1.28125 -2.722656 1.28125 -2.671875 C 1.28125 -1.984375 1.460938 -1.441406 1.828125 -1.046875 C 2.203125 -0.648438 2.632812 -0.453125 3.125 -0.453125 C 3.4375 -0.453125 3.75 -0.535156 4.0625 -0.703125 C 4.375 -0.867188 4.539062 -0.953125 4.5625 -0.953125 C 4.632812 -0.953125 4.671875 -0.921875 4.671875 -0.859375 C 4.671875 -0.765625 4.585938 -0.640625 4.421875 -0.484375 C 4.265625 -0.335938 4.113281 -0.21875 3.96875 -0.125 C 3.613281 0.09375 3.203125 0.203125 2.734375 0.203125 Z M 1.484375 -3.046875 L 3.40625 -3.109375 C 3.507812 -3.109375 3.570312 -3.117188 3.59375 -3.140625 C 3.625 -3.160156 3.640625 -3.195312 3.640625 -3.25 C 3.640625 -3.46875 3.535156 -3.722656 3.328125 -4.015625 C 3.128906 -4.304688 2.847656 -4.453125 2.484375 -4.453125 C 2.117188 -4.453125 1.835938 -4.304688 1.640625 -4.015625 C 1.441406 -3.734375 1.34375 -3.460938 1.34375 -3.203125 C 1.34375 -3.097656 1.390625 -3.046875 1.484375 -3.046875 Z M 1.484375 -3.046875 "/></g></g></g><g fill="#9cff1e" fill-opacity="1"><g transform="translate(138.541676, 219.013447)"><g><path d="M 2.6875 0.234375 C 2 0.234375 1.445312 0.0234375 1.03125 -0.390625 C 0.625 -0.804688 0.421875 -1.367188 0.421875 -2.078125 C 0.421875 -2.796875 0.65625 -3.410156 1.125 -3.921875 C 1.601562 -4.429688 2.21875 -4.6875 2.96875 -4.6875 C 3.21875 -4.6875 3.488281 -4.648438 3.78125 -4.578125 C 4.082031 -4.503906 4.238281 -4.421875 4.25 -4.328125 C 4.257812 -4.148438 4.265625 -3.9375 4.265625 -3.6875 C 4.265625 -3.445312 4.222656 -3.328125 4.140625 -3.328125 C 4.066406 -3.328125 4.003906 -3.378906 3.953125 -3.484375 C 3.828125 -3.691406 3.585938 -3.875 3.234375 -4.03125 C 2.890625 -4.1875 2.585938 -4.265625 2.328125 -4.265625 C 2.179688 -4.265625 2.035156 -4.207031 1.890625 -4.09375 C 1.753906 -3.988281 1.644531 -3.867188 1.5625 -3.734375 C 1.351562 -3.429688 1.25 -3 1.25 -2.4375 C 1.25 -1.875 1.425781 -1.382812 1.78125 -0.96875 C 2.144531 -0.550781 2.585938 -0.34375 3.109375 -0.34375 C 3.367188 -0.34375 3.609375 -0.390625 3.828125 -0.484375 C 4.046875 -0.578125 4.210938 -0.671875 4.328125 -0.765625 C 4.453125 -0.859375 4.53125 -0.90625 4.5625 -0.90625 C 4.644531 -0.90625 4.6875 -0.867188 4.6875 -0.796875 C 4.6875 -0.722656 4.609375 -0.609375 4.453125 -0.453125 C 4.296875 -0.304688 4.144531 -0.191406 4 -0.109375 C 3.644531 0.117188 3.207031 0.234375 2.6875 0.234375 Z M 2.6875 0.234375 "/></g></g></g><g fill="#9cff1e" fill-opacity="1"><g transform="translate(143.483658, 219.013447)"><g><path d="M 1.4375 -0.046875 L 0.671875 0 C 0.484375 0 0.382812 -0.0078125 0.375 -0.03125 C 0.375 -0.0507812 0.375 -0.078125 0.375 -0.109375 C 0.375 -0.179688 0.414062 -0.226562 0.5 -0.25 C 0.707031 -0.3125 0.84375 -0.40625 0.90625 -0.53125 C 0.96875 -0.65625 1 -0.84375 1 -1.09375 L 1.046875 -4.828125 L 1.046875 -5.359375 C 1.046875 -6.347656 1.023438 -6.953125 0.984375 -7.171875 C 0.941406 -7.390625 0.8125 -7.5 0.59375 -7.5 L 0.453125 -7.5 L 0.40625 -7.515625 C 0.28125 -7.515625 0.21875 -7.546875 0.21875 -7.609375 C 0.21875 -7.671875 0.253906 -7.722656 0.328125 -7.765625 C 0.410156 -7.804688 0.519531 -7.84375 0.65625 -7.875 C 0.800781 -7.914062 1.003906 -7.992188 1.265625 -8.109375 C 1.523438 -8.234375 1.691406 -8.296875 1.765625 -8.296875 C 1.859375 -8.296875 1.90625 -8.207031 1.90625 -8.03125 C 1.90625 -8 1.890625 -7.910156 1.859375 -7.765625 C 1.835938 -7.628906 1.820312 -7.363281 1.8125 -6.96875 C 1.8125 -6.570312 1.804688 -6.144531 1.796875 -5.6875 C 1.785156 -5.238281 1.773438 -4.929688 1.765625 -4.765625 C 1.753906 -4.460938 1.75 -4.25 1.75 -4.125 C 1.75 -4 1.78125 -3.9375 1.84375 -3.9375 C 1.851562 -3.9375 1.925781 -4.003906 2.0625 -4.140625 C 2.195312 -4.273438 2.378906 -4.410156 2.609375 -4.546875 C 2.847656 -4.679688 3.101562 -4.75 3.375 -4.75 C 3.96875 -4.75 4.425781 -4.570312 4.75 -4.21875 C 5.082031 -3.875 5.25 -3.332031 5.25 -2.59375 L 5.25 -1 C 5.25 -0.800781 5.285156 -0.644531 5.359375 -0.53125 C 5.429688 -0.425781 5.515625 -0.375 5.609375 -0.375 C 6.003906 -0.332031 6.203125 -0.253906 6.203125 -0.140625 C 6.203125 -0.0234375 6.085938 0.03125 5.859375 0.03125 L 4.9375 -0.015625 L 4.09375 0.015625 C 3.925781 0.015625 3.84375 -0.0195312 3.84375 -0.09375 C 3.84375 -0.226562 3.941406 -0.296875 4.140625 -0.296875 C 4.210938 -0.296875 4.28125 -0.332031 4.34375 -0.40625 C 4.40625 -0.488281 4.4375 -0.613281 4.4375 -0.78125 L 4.453125 -1.078125 L 4.46875 -2.609375 C 4.46875 -3.046875 4.332031 -3.425781 4.0625 -3.75 C 3.789062 -4.082031 3.476562 -4.25 3.125 -4.25 C 2.769531 -4.25 2.410156 -4.101562 2.046875 -3.8125 C 1.910156 -3.707031 1.820312 -3.539062 1.78125 -3.3125 C 1.75 -3.082031 1.734375 -2.578125 1.734375 -1.796875 L 1.734375 -1.546875 C 1.734375 -1.210938 1.757812 -0.945312 1.8125 -0.75 C 1.894531 -0.457031 2.097656 -0.300781 2.421875 -0.28125 C 2.515625 -0.269531 2.585938 -0.253906 2.640625 -0.234375 C 2.703125 -0.222656 2.734375 -0.1875 2.734375 -0.125 C 2.734375 -0.0390625 2.691406 0 2.609375 0 L 2.328125 -0.015625 C 2.140625 -0.015625 1.945312 -0.0195312 1.75 -0.03125 C 1.5625 -0.0390625 1.457031 -0.046875 1.4375 -0.046875 Z M 1.4375 -0.046875 "/></g></g></g><g fill="#9cff1e" fill-opacity="1"><g transform="translate(149.901664, 219.013447)"><g><path d="M 2.71875 0 L 1.90625 -0.046875 C 1.71875 -0.046875 1.46875 -0.0351562 1.15625 -0.015625 L 0.6875 0 C 0.582031 0 0.53125 -0.03125 0.53125 -0.09375 C 0.53125 -0.164062 0.546875 -0.207031 0.578125 -0.21875 C 0.617188 -0.226562 0.664062 -0.238281 0.71875 -0.25 C 0.769531 -0.257812 0.820312 -0.28125 0.875 -0.3125 C 1.007812 -0.40625 1.082031 -0.671875 1.09375 -1.109375 C 1.113281 -1.546875 1.125 -1.835938 1.125 -1.984375 L 1.125 -3.546875 C 1.125 -3.785156 1.082031 -3.941406 1 -4.015625 C 0.914062 -4.097656 0.800781 -4.140625 0.65625 -4.140625 L 0.546875 -4.140625 C 0.410156 -4.140625 0.34375 -4.179688 0.34375 -4.265625 C 0.34375 -4.335938 0.421875 -4.382812 0.578125 -4.40625 C 0.734375 -4.425781 0.851562 -4.445312 0.9375 -4.46875 C 1.03125 -4.5 1.148438 -4.546875 1.296875 -4.609375 C 1.453125 -4.671875 1.570312 -4.722656 1.65625 -4.765625 C 1.75 -4.804688 1.8125 -4.828125 1.84375 -4.828125 L 1.875 -4.828125 C 1.9375 -4.828125 1.96875 -4.785156 1.96875 -4.703125 L 1.953125 -4.234375 C 1.953125 -4.046875 1.960938 -3.953125 1.984375 -3.953125 C 2.015625 -3.953125 2.046875 -3.96875 2.078125 -4 C 2.179688 -4.15625 2.328125 -4.285156 2.515625 -4.390625 C 2.835938 -4.597656 3.148438 -4.703125 3.453125 -4.703125 C 3.753906 -4.703125 4.019531 -4.65625 4.25 -4.5625 C 4.488281 -4.46875 4.671875 -4.351562 4.796875 -4.21875 C 4.929688 -4.09375 5.039062 -3.941406 5.125 -3.765625 C 5.269531 -3.472656 5.34375 -3.171875 5.34375 -2.859375 L 5.34375 -2.75 L 5.359375 -2.171875 L 5.359375 -1.0625 C 5.359375 -0.78125 5.394531 -0.585938 5.46875 -0.484375 C 5.550781 -0.378906 5.738281 -0.304688 6.03125 -0.265625 C 6.175781 -0.242188 6.25 -0.1875 6.25 -0.09375 C 6.25 -0.0195312 6.175781 0.015625 6.03125 0.015625 L 5.125 -0.046875 L 4.28125 0 C 4.132812 0 4.0625 -0.046875 4.0625 -0.140625 C 4.0625 -0.203125 4.109375 -0.242188 4.203125 -0.265625 L 4.34375 -0.3125 C 4.5 -0.351562 4.578125 -0.59375 4.578125 -1.03125 L 4.578125 -2.515625 C 4.578125 -3.078125 4.4375 -3.5 4.15625 -3.78125 C 3.882812 -4.070312 3.570312 -4.21875 3.21875 -4.21875 C 2.875 -4.21875 2.582031 -4.132812 2.34375 -3.96875 C 2.113281 -3.800781 1.972656 -3.644531 1.921875 -3.5 C 1.867188 -3.351562 1.84375 -2.796875 1.84375 -1.828125 L 1.84375 -1.40625 C 1.84375 -1.039062 1.878906 -0.769531 1.953125 -0.59375 C 2.035156 -0.425781 2.207031 -0.332031 2.46875 -0.3125 C 2.539062 -0.3125 2.632812 -0.296875 2.75 -0.265625 C 2.863281 -0.242188 2.921875 -0.203125 2.921875 -0.140625 C 2.921875 -0.046875 2.851562 0 2.71875 0 Z M 2.71875 0 "/></g></g></g><g fill="#9cff1e" fill-opacity="1"><g transform="translate(156.36341, 219.013447)"><g><path d="M 2.859375 0.203125 C 2.117188 0.203125 1.523438 -0.0351562 1.078125 -0.515625 C 0.640625 -0.992188 0.421875 -1.5625 0.421875 -2.21875 C 0.421875 -2.882812 0.648438 -3.46875 1.109375 -3.96875 C 1.566406 -4.46875 2.164062 -4.71875 2.90625 -4.71875 C 3.65625 -4.71875 4.285156 -4.5 4.796875 -4.0625 C 5.304688 -3.632812 5.5625 -3.035156 5.5625 -2.265625 C 5.5625 -1.503906 5.296875 -0.898438 4.765625 -0.453125 C 4.242188 -0.015625 3.609375 0.203125 2.859375 0.203125 Z M 2.75 -4.421875 C 2.363281 -4.421875 2.023438 -4.269531 1.734375 -3.96875 C 1.441406 -3.664062 1.296875 -3.171875 1.296875 -2.484375 C 1.296875 -1.804688 1.492188 -1.242188 1.890625 -0.796875 C 2.296875 -0.347656 2.726562 -0.125 3.1875 -0.125 C 3.644531 -0.125 4.015625 -0.28125 4.296875 -0.59375 C 4.585938 -0.914062 4.734375 -1.382812 4.734375 -2 C 4.734375 -2.613281 4.554688 -3.171875 4.203125 -3.671875 C 3.859375 -4.171875 3.375 -4.421875 2.75 -4.421875 Z M 2.75 -4.421875 "/></g></g></g><g fill="#9cff1e" fill-opacity="1"><g transform="translate(162.34408, 219.013447)"><g><path d="M 1 -2.09375 L 1.03125 -6.75 C 1.03125 -6.914062 1.003906 -7.066406 0.953125 -7.203125 C 0.898438 -7.335938 0.835938 -7.414062 0.765625 -7.4375 C 0.703125 -7.46875 0.5625 -7.484375 0.34375 -7.484375 C 0.257812 -7.484375 0.21875 -7.507812 0.21875 -7.5625 C 0.21875 -7.613281 0.222656 -7.648438 0.234375 -7.671875 C 0.242188 -7.691406 0.265625 -7.710938 0.296875 -7.734375 C 0.335938 -7.753906 0.382812 -7.769531 0.4375 -7.78125 C 0.644531 -7.832031 0.863281 -7.910156 1.09375 -8.015625 C 1.445312 -8.179688 1.679688 -8.265625 1.796875 -8.265625 C 1.878906 -8.265625 1.921875 -8.195312 1.921875 -8.0625 C 1.921875 -8.03125 1.914062 -7.945312 1.90625 -7.8125 C 1.863281 -7.375 1.84375 -6.898438 1.84375 -6.390625 L 1.84375 -5.78125 L 1.8125 -4.328125 L 1.8125 -1.078125 C 1.8125 -0.921875 1.820312 -0.789062 1.84375 -0.6875 C 1.875 -0.59375 1.957031 -0.5 2.09375 -0.40625 C 2.238281 -0.3125 2.441406 -0.265625 2.703125 -0.265625 C 2.734375 -0.265625 2.765625 -0.242188 2.796875 -0.203125 C 2.828125 -0.171875 2.84375 -0.140625 2.84375 -0.109375 C 2.84375 -0.00390625 2.726562 0.046875 2.5 0.046875 L 1.40625 -0.03125 C 1.207031 -0.03125 1.019531 -0.0195312 0.84375 0 C 0.675781 0.03125 0.566406 0.046875 0.515625 0.046875 C 0.460938 0.046875 0.421875 0.0351562 0.390625 0.015625 C 0.359375 -0.00390625 0.34375 -0.0351562 0.34375 -0.078125 C 0.34375 -0.117188 0.359375 -0.148438 0.390625 -0.171875 C 0.421875 -0.203125 0.472656 -0.222656 0.546875 -0.234375 C 0.765625 -0.296875 0.894531 -0.382812 0.9375 -0.5 C 0.976562 -0.625 1 -0.789062 1 -1 Z M 1 -2.09375 "/></g></g></g><g fill="#9cff1e" fill-opacity="1"><g transform="translate(165.394549, 219.013447)"><g><path d="M 2.859375 0.203125 C 2.117188 0.203125 1.523438 -0.0351562 1.078125 -0.515625 C 0.640625 -0.992188 0.421875 -1.5625 0.421875 -2.21875 C 0.421875 -2.882812 0.648438 -3.46875 1.109375 -3.96875 C 1.566406 -4.46875 2.164062 -4.71875 2.90625 -4.71875 C 3.65625 -4.71875 4.285156 -4.5 4.796875 -4.0625 C 5.304688 -3.632812 5.5625 -3.035156 5.5625 -2.265625 C 5.5625 -1.503906 5.296875 -0.898438 4.765625 -0.453125 C 4.242188 -0.015625 3.609375 0.203125 2.859375 0.203125 Z M 2.75 -4.421875 C 2.363281 -4.421875 2.023438 -4.269531 1.734375 -3.96875 C 1.441406 -3.664062 1.296875 -3.171875 1.296875 -2.484375 C 1.296875 -1.804688 1.492188 -1.242188 1.890625 -0.796875 C 2.296875 -0.347656 2.726562 -0.125 3.1875 -0.125 C 3.644531 -0.125 4.015625 -0.28125 4.296875 -0.59375 C 4.585938 -0.914062 4.734375 -1.382812 4.734375 -2 C 4.734375 -2.613281 4.554688 -3.171875 4.203125 -3.671875 C 3.859375 -4.171875 3.375 -4.421875 2.75 -4.421875 Z M 2.75 -4.421875 "/></g></g></g><g fill="#9cff1e" fill-opacity="1"><g transform="translate(171.375219, 219.013447)"><g><path d="M 1.53125 2.171875 C 1.25 2.109375 0.992188 1.984375 0.765625 1.796875 C 0.535156 1.609375 0.421875 1.390625 0.421875 1.140625 C 0.421875 0.890625 0.484375 0.695312 0.609375 0.5625 C 0.742188 0.425781 0.878906 0.320312 1.015625 0.25 C 1.148438 0.1875 1.21875 0.144531 1.21875 0.125 C 1.21875 0.113281 1.195312 0.09375 1.15625 0.0625 C 1.125 0.03125 1.082031 0 1.03125 -0.03125 C 0.914062 -0.125 0.859375 -0.28125 0.859375 -0.5 C 0.859375 -0.726562 0.90625 -0.921875 1 -1.078125 C 1.09375 -1.242188 1.1875 -1.363281 1.28125 -1.4375 C 1.375 -1.519531 1.421875 -1.570312 1.421875 -1.59375 C 1.421875 -1.625 1.378906 -1.671875 1.296875 -1.734375 C 1.222656 -1.804688 1.140625 -1.882812 1.046875 -1.96875 C 0.953125 -2.050781 0.863281 -2.1875 0.78125 -2.375 C 0.707031 -2.570312 0.671875 -2.773438 0.671875 -2.984375 C 0.671875 -3.203125 0.695312 -3.394531 0.75 -3.5625 C 0.8125 -3.738281 0.90625 -3.921875 1.03125 -4.109375 C 1.15625 -4.296875 1.347656 -4.445312 1.609375 -4.5625 C 1.878906 -4.675781 2.175781 -4.734375 2.5 -4.734375 C 2.832031 -4.734375 3.097656 -4.695312 3.296875 -4.625 C 3.503906 -4.550781 3.65625 -4.476562 3.75 -4.40625 C 3.851562 -4.332031 3.925781 -4.296875 3.96875 -4.296875 C 4.007812 -4.296875 4.1875 -4.363281 4.5 -4.5 C 4.601562 -4.539062 4.679688 -4.632812 4.734375 -4.78125 C 4.785156 -4.9375 4.84375 -5.015625 4.90625 -5.015625 C 5 -5.015625 5.046875 -4.988281 5.046875 -4.9375 C 5.046875 -4.757812 5.019531 -4.566406 4.96875 -4.359375 C 4.914062 -4.160156 4.851562 -4.003906 4.78125 -3.890625 C 4.707031 -3.785156 4.566406 -3.6875 4.359375 -3.59375 C 4.429688 -3.375 4.46875 -3.191406 4.46875 -3.046875 C 4.46875 -2.578125 4.289062 -2.179688 3.9375 -1.859375 C 3.59375 -1.546875 3.171875 -1.390625 2.671875 -1.390625 C 2.484375 -1.390625 2.300781 -1.40625 2.125 -1.4375 C 1.957031 -1.46875 1.851562 -1.484375 1.8125 -1.484375 C 1.78125 -1.484375 1.734375 -1.472656 1.671875 -1.453125 C 1.617188 -1.441406 1.546875 -1.394531 1.453125 -1.3125 C 1.367188 -1.226562 1.328125 -1.109375 1.328125 -0.953125 C 1.328125 -0.703125 1.441406 -0.539062 1.671875 -0.46875 C 1.898438 -0.40625 2.273438 -0.375 2.796875 -0.375 L 3.296875 -0.375 C 4.359375 -0.375 4.890625 -0.0546875 4.890625 0.578125 C 4.890625 0.804688 4.863281 0.976562 4.8125 1.09375 C 4.675781 1.445312 4.390625 1.726562 3.953125 1.9375 C 3.523438 2.15625 3.023438 2.265625 2.453125 2.265625 C 2.128906 2.265625 1.820312 2.234375 1.53125 2.171875 Z M 1.0625 1 C 1.0625 1.3125 1.195312 1.550781 1.46875 1.71875 C 1.738281 1.882812 2.082031 1.96875 2.5 1.96875 C 2.925781 1.96875 3.316406 1.875 3.671875 1.6875 C 4.035156 1.5 4.21875 1.257812 4.21875 0.96875 C 4.21875 0.707031 4.09375 0.546875 3.84375 0.484375 C 3.644531 0.441406 3.363281 0.421875 3 0.421875 L 2.90625 0.421875 C 2.675781 0.421875 2.394531 0.394531 2.0625 0.34375 L 1.5625 0.265625 C 1.488281 0.265625 1.382812 0.335938 1.25 0.484375 C 1.125 0.628906 1.0625 0.800781 1.0625 1 Z M 2.53125 -4.5 C 2.226562 -4.5 1.984375 -4.382812 1.796875 -4.15625 C 1.609375 -3.925781 1.515625 -3.59375 1.515625 -3.15625 C 1.515625 -2.726562 1.613281 -2.367188 1.8125 -2.078125 C 2.019531 -1.785156 2.285156 -1.640625 2.609375 -1.640625 C 2.929688 -1.640625 3.179688 -1.765625 3.359375 -2.015625 C 3.535156 -2.265625 3.625 -2.582031 3.625 -2.96875 C 3.625 -3.351562 3.519531 -3.703125 3.3125 -4.015625 C 3.101562 -4.335938 2.84375 -4.5 2.53125 -4.5 Z M 2.53125 -4.5 "/></g></g></g><g fill="#9cff1e" fill-opacity="1"><g transform="translate(176.710809, 219.013447)"><g><path d="M 2.234375 2.078125 L 1.765625 2.09375 C 1.617188 2.09375 1.546875 2.046875 1.546875 1.953125 C 1.546875 1.921875 1.628906 1.800781 1.796875 1.59375 C 1.960938 1.394531 2.128906 1.144531 2.296875 0.84375 C 2.460938 0.550781 2.546875 0.289062 2.546875 0.0625 C 2.546875 -0.164062 2.335938 -0.734375 1.921875 -1.640625 C 1.503906 -2.546875 1.144531 -3.285156 0.84375 -3.859375 C 0.757812 -4.003906 0.675781 -4.113281 0.59375 -4.1875 C 0.507812 -4.269531 0.441406 -4.316406 0.390625 -4.328125 C 0.273438 -4.347656 0.21875 -4.40625 0.21875 -4.5 C 0.21875 -4.59375 0.289062 -4.640625 0.4375 -4.640625 L 1.609375 -4.609375 L 2.234375 -4.640625 C 2.285156 -4.640625 2.328125 -4.625 2.359375 -4.59375 C 2.398438 -4.570312 2.421875 -4.546875 2.421875 -4.515625 C 2.421875 -4.378906 2.335938 -4.3125 2.171875 -4.3125 L 2 -4.3125 C 1.882812 -4.3125 1.828125 -4.222656 1.828125 -4.046875 C 1.828125 -3.828125 2.019531 -3.300781 2.40625 -2.46875 C 2.46875 -2.34375 2.554688 -2.144531 2.671875 -1.875 C 2.890625 -1.382812 3.019531 -1.140625 3.0625 -1.140625 C 3.101562 -1.140625 3.269531 -1.554688 3.5625 -2.390625 C 3.863281 -3.234375 4.015625 -3.734375 4.015625 -3.890625 C 4.015625 -4.054688 3.976562 -4.171875 3.90625 -4.234375 C 3.84375 -4.296875 3.765625 -4.328125 3.671875 -4.328125 C 3.441406 -4.316406 3.328125 -4.378906 3.328125 -4.515625 C 3.328125 -4.597656 3.398438 -4.640625 3.546875 -4.640625 L 5.015625 -4.640625 C 5.160156 -4.640625 5.234375 -4.59375 5.234375 -4.5 C 5.234375 -4.425781 5.171875 -4.375 5.046875 -4.34375 C 4.921875 -4.3125 4.835938 -4.265625 4.796875 -4.203125 C 4.671875 -4.035156 4.472656 -3.578125 4.203125 -2.828125 L 3.21875 -0.234375 C 3.144531 -0.0234375 3.066406 0.1875 2.984375 0.40625 C 2.898438 0.632812 2.832031 0.816406 2.78125 0.953125 C 2.738281 1.085938 2.691406 1.222656 2.640625 1.359375 C 2.585938 1.503906 2.546875 1.613281 2.515625 1.6875 C 2.484375 1.757812 2.453125 1.832031 2.421875 1.90625 C 2.367188 2.019531 2.316406 2.078125 2.265625 2.078125 Z M 2.234375 2.078125 "/></g></g></g></svg>